<mxfile host="app.diagrams.net" modified="2021-04-04T15:46:39.182Z" agent="5.0 (Windows NT 10.0; Win64; x64) AppleWebKit/537.36 (KHTML, like Gecko) Chrome/89.0.4389.114 Safari/537.36" etag="2nDZxmwO6C_kLNqyfPKp" version="14.5.7" type="github">
  <diagram id="D_eCTVxnBxqqD3bWFr6z" name="Page-1">
    <mxGraphModel dx="1697" dy="929" grid="1" gridSize="10" guides="1" tooltips="1" connect="1" arrows="1" fold="1" page="1" pageScale="1" pageWidth="1390" pageHeight="980" math="0" shadow="0">
      <root>
        <mxCell id="0" />
        <mxCell id="1" parent="0" />
        <mxCell id="GvflRWC4tKrGhOwPcwrg-1" style="edgeStyle=orthogonalEdgeStyle;rounded=0;orthogonalLoop=1;jettySize=auto;html=1;entryX=0;entryY=0.25;entryDx=0;entryDy=0;startArrow=classic;startFill=1;" edge="1" parent="1" source="GvflRWC4tKrGhOwPcwrg-3" target="GvflRWC4tKrGhOwPcwrg-12">
          <mxGeometry relative="1" as="geometry" />
        </mxCell>
        <mxCell id="GvflRWC4tKrGhOwPcwrg-2" style="edgeStyle=orthogonalEdgeStyle;rounded=0;orthogonalLoop=1;jettySize=auto;html=1;exitX=0.5;exitY=0;exitDx=0;exitDy=0;exitPerimeter=0;entryX=0;entryY=0.5;entryDx=0;entryDy=0;startArrow=none;startFill=0;" edge="1" parent="1" source="GvflRWC4tKrGhOwPcwrg-3" target="GvflRWC4tKrGhOwPcwrg-14">
          <mxGeometry relative="1" as="geometry" />
        </mxCell>
        <mxCell id="GvflRWC4tKrGhOwPcwrg-3" value="競争環境" style="shape=umlActor;verticalLabelPosition=bottom;verticalAlign=top;html=1;outlineConnect=0;" vertex="1" parent="1">
          <mxGeometry x="20" y="420" width="30" height="60" as="geometry" />
        </mxCell>
        <mxCell id="GvflRWC4tKrGhOwPcwrg-4" style="edgeStyle=orthogonalEdgeStyle;rounded=0;orthogonalLoop=1;jettySize=auto;html=1;exitX=0.5;exitY=1;exitDx=0;exitDy=0;" edge="1" parent="1" source="GvflRWC4tKrGhOwPcwrg-5" target="GvflRWC4tKrGhOwPcwrg-8">
          <mxGeometry relative="1" as="geometry" />
        </mxCell>
        <mxCell id="GvflRWC4tKrGhOwPcwrg-5" value="ミッション" style="rounded=0;whiteSpace=wrap;html=1;" vertex="1" parent="1">
          <mxGeometry x="110" y="90" width="120" height="60" as="geometry" />
        </mxCell>
        <mxCell id="GvflRWC4tKrGhOwPcwrg-6" style="edgeStyle=orthogonalEdgeStyle;rounded=0;orthogonalLoop=1;jettySize=auto;html=1;exitX=1;exitY=0.5;exitDx=0;exitDy=0;entryX=0;entryY=0.5;entryDx=0;entryDy=0;" edge="1" parent="1" source="GvflRWC4tKrGhOwPcwrg-8" target="GvflRWC4tKrGhOwPcwrg-10">
          <mxGeometry relative="1" as="geometry" />
        </mxCell>
        <mxCell id="GvflRWC4tKrGhOwPcwrg-7" style="edgeStyle=orthogonalEdgeStyle;rounded=0;orthogonalLoop=1;jettySize=auto;html=1;exitX=1;exitY=0.75;exitDx=0;exitDy=0;entryX=0.25;entryY=0;entryDx=0;entryDy=0;startArrow=none;startFill=0;" edge="1" parent="1" source="GvflRWC4tKrGhOwPcwrg-8" target="GvflRWC4tKrGhOwPcwrg-27">
          <mxGeometry relative="1" as="geometry" />
        </mxCell>
        <mxCell id="GvflRWC4tKrGhOwPcwrg-8" value="ビジョン" style="rounded=0;whiteSpace=wrap;html=1;" vertex="1" parent="1">
          <mxGeometry x="300" y="240" width="120" height="60" as="geometry" />
        </mxCell>
        <mxCell id="GvflRWC4tKrGhOwPcwrg-9" value="価値基準" style="edgeStyle=orthogonalEdgeStyle;rounded=0;orthogonalLoop=1;jettySize=auto;html=1;exitX=0.5;exitY=1;exitDx=0;exitDy=0;entryX=0.5;entryY=0;entryDx=0;entryDy=0;" edge="1" parent="1" source="GvflRWC4tKrGhOwPcwrg-10" target="GvflRWC4tKrGhOwPcwrg-40">
          <mxGeometry relative="1" as="geometry" />
        </mxCell>
        <mxCell id="GvflRWC4tKrGhOwPcwrg-10" value="バリュー" style="rounded=0;whiteSpace=wrap;html=1;" vertex="1" parent="1">
          <mxGeometry x="710" y="240" width="120" height="60" as="geometry" />
        </mxCell>
        <mxCell id="GvflRWC4tKrGhOwPcwrg-11" value="実現" style="edgeStyle=orthogonalEdgeStyle;rounded=0;orthogonalLoop=1;jettySize=auto;html=1;exitX=0.5;exitY=0;exitDx=0;exitDy=0;entryX=0.75;entryY=1;entryDx=0;entryDy=0;" edge="1" parent="1" source="GvflRWC4tKrGhOwPcwrg-12" target="GvflRWC4tKrGhOwPcwrg-8">
          <mxGeometry relative="1" as="geometry" />
        </mxCell>
        <mxCell id="GvflRWC4tKrGhOwPcwrg-12" value="プロダクト" style="rounded=0;whiteSpace=wrap;html=1;" vertex="1" parent="1">
          <mxGeometry x="360" y="435" width="120" height="60" as="geometry" />
        </mxCell>
        <mxCell id="GvflRWC4tKrGhOwPcwrg-13" value="持続可能性を与える" style="edgeStyle=orthogonalEdgeStyle;rounded=0;orthogonalLoop=1;jettySize=auto;html=1;exitX=1;exitY=0.5;exitDx=0;exitDy=0;startArrow=none;startFill=0;entryX=0.25;entryY=0;entryDx=0;entryDy=0;" edge="1" parent="1" source="GvflRWC4tKrGhOwPcwrg-14" target="GvflRWC4tKrGhOwPcwrg-40">
          <mxGeometry relative="1" as="geometry">
            <mxPoint x="870" y="390" as="targetPoint" />
          </mxGeometry>
        </mxCell>
        <mxCell id="GvflRWC4tKrGhOwPcwrg-14" value="お金" style="rounded=0;whiteSpace=wrap;html=1;" vertex="1" parent="1">
          <mxGeometry x="110" y="360" width="120" height="60" as="geometry" />
        </mxCell>
        <mxCell id="GvflRWC4tKrGhOwPcwrg-15" style="edgeStyle=orthogonalEdgeStyle;rounded=0;orthogonalLoop=1;jettySize=auto;html=1;exitX=0;exitY=0.5;exitDx=0;exitDy=0;" edge="1" parent="1" source="GvflRWC4tKrGhOwPcwrg-18" target="GvflRWC4tKrGhOwPcwrg-3">
          <mxGeometry relative="1" as="geometry">
            <mxPoint x="60" y="450" as="targetPoint" />
          </mxGeometry>
        </mxCell>
        <mxCell id="GvflRWC4tKrGhOwPcwrg-16" style="edgeStyle=orthogonalEdgeStyle;rounded=0;orthogonalLoop=1;jettySize=auto;html=1;exitX=1;exitY=0.25;exitDx=0;exitDy=0;entryX=0.25;entryY=1;entryDx=0;entryDy=0;" edge="1" parent="1" source="GvflRWC4tKrGhOwPcwrg-18" target="GvflRWC4tKrGhOwPcwrg-8">
          <mxGeometry relative="1" as="geometry" />
        </mxCell>
        <mxCell id="GvflRWC4tKrGhOwPcwrg-17" style="edgeStyle=orthogonalEdgeStyle;rounded=0;orthogonalLoop=1;jettySize=auto;html=1;exitX=1;exitY=0.75;exitDx=0;exitDy=0;entryX=0.25;entryY=1;entryDx=0;entryDy=0;" edge="1" parent="1" source="GvflRWC4tKrGhOwPcwrg-18" target="GvflRWC4tKrGhOwPcwrg-12">
          <mxGeometry relative="1" as="geometry" />
        </mxCell>
        <mxCell id="GvflRWC4tKrGhOwPcwrg-18" value="目的不確実性" style="rounded=0;whiteSpace=wrap;html=1;fillColor=#ffe6cc;strokeColor=#d79b00;" vertex="1" parent="1">
          <mxGeometry x="110" y="540" width="120" height="60" as="geometry" />
        </mxCell>
        <mxCell id="GvflRWC4tKrGhOwPcwrg-19" style="edgeStyle=orthogonalEdgeStyle;rounded=0;orthogonalLoop=1;jettySize=auto;html=1;exitX=0;exitY=0.5;exitDx=0;exitDy=0;entryX=0.5;entryY=1;entryDx=0;entryDy=0;" edge="1" parent="1" source="GvflRWC4tKrGhOwPcwrg-21" target="GvflRWC4tKrGhOwPcwrg-12">
          <mxGeometry relative="1" as="geometry" />
        </mxCell>
        <mxCell id="GvflRWC4tKrGhOwPcwrg-20" style="edgeStyle=orthogonalEdgeStyle;rounded=0;orthogonalLoop=1;jettySize=auto;html=1;exitX=1;exitY=0.25;exitDx=0;exitDy=0;entryX=0.5;entryY=1;entryDx=0;entryDy=0;" edge="1" parent="1" source="GvflRWC4tKrGhOwPcwrg-21" target="GvflRWC4tKrGhOwPcwrg-27">
          <mxGeometry relative="1" as="geometry" />
        </mxCell>
        <mxCell id="GvflRWC4tKrGhOwPcwrg-21" value="方法不確実性" style="rounded=0;whiteSpace=wrap;html=1;fillColor=#ffe6cc;strokeColor=#d79b00;" vertex="1" parent="1">
          <mxGeometry x="490" y="640" width="120" height="60" as="geometry" />
        </mxCell>
        <mxCell id="GvflRWC4tKrGhOwPcwrg-22" style="edgeStyle=orthogonalEdgeStyle;rounded=0;orthogonalLoop=1;jettySize=auto;html=1;exitX=0;exitY=0.5;exitDx=0;exitDy=0;entryX=0.418;entryY=1.021;entryDx=0;entryDy=0;entryPerimeter=0;" edge="1" parent="1" source="GvflRWC4tKrGhOwPcwrg-25" target="GvflRWC4tKrGhOwPcwrg-31">
          <mxGeometry relative="1" as="geometry" />
        </mxCell>
        <mxCell id="GvflRWC4tKrGhOwPcwrg-23" style="edgeStyle=orthogonalEdgeStyle;rounded=0;orthogonalLoop=1;jettySize=auto;html=1;exitX=0.5;exitY=0;exitDx=0;exitDy=0;entryX=0.5;entryY=1;entryDx=0;entryDy=0;" edge="1" parent="1" source="GvflRWC4tKrGhOwPcwrg-25" target="GvflRWC4tKrGhOwPcwrg-34">
          <mxGeometry relative="1" as="geometry" />
        </mxCell>
        <mxCell id="GvflRWC4tKrGhOwPcwrg-24" style="edgeStyle=orthogonalEdgeStyle;rounded=0;orthogonalLoop=1;jettySize=auto;html=1;exitX=1;exitY=0.5;exitDx=0;exitDy=0;entryX=0.5;entryY=1;entryDx=0;entryDy=0;" edge="1" parent="1" source="GvflRWC4tKrGhOwPcwrg-25" target="GvflRWC4tKrGhOwPcwrg-37">
          <mxGeometry relative="1" as="geometry" />
        </mxCell>
        <mxCell id="GvflRWC4tKrGhOwPcwrg-25" value="通信不確実性" style="rounded=0;whiteSpace=wrap;html=1;fillColor=#ffe6cc;strokeColor=#d79b00;" vertex="1" parent="1">
          <mxGeometry x="880" y="850" width="120" height="60" as="geometry" />
        </mxCell>
        <mxCell id="GvflRWC4tKrGhOwPcwrg-26" value="製品投入" style="edgeStyle=orthogonalEdgeStyle;rounded=0;orthogonalLoop=1;jettySize=auto;html=1;exitX=0;exitY=0.25;exitDx=0;exitDy=0;entryX=1;entryY=0.25;entryDx=0;entryDy=0;" edge="1" parent="1" source="GvflRWC4tKrGhOwPcwrg-27" target="GvflRWC4tKrGhOwPcwrg-12">
          <mxGeometry relative="1" as="geometry" />
        </mxCell>
        <mxCell id="GvflRWC4tKrGhOwPcwrg-27" value="プロダクトバックログ" style="rounded=0;whiteSpace=wrap;html=1;" vertex="1" parent="1">
          <mxGeometry x="610" y="435" width="120" height="60" as="geometry" />
        </mxCell>
        <mxCell id="GvflRWC4tKrGhOwPcwrg-28" value="主として対処" style="edgeStyle=orthogonalEdgeStyle;rounded=0;orthogonalLoop=1;jettySize=auto;html=1;exitX=0;exitY=0.5;exitDx=0;exitDy=0;entryX=1;entryY=0.5;entryDx=0;entryDy=0;" edge="1" parent="1" source="GvflRWC4tKrGhOwPcwrg-31" target="GvflRWC4tKrGhOwPcwrg-18">
          <mxGeometry relative="1" as="geometry" />
        </mxCell>
        <mxCell id="GvflRWC4tKrGhOwPcwrg-29" style="edgeStyle=orthogonalEdgeStyle;rounded=0;orthogonalLoop=1;jettySize=auto;html=1;exitX=1;exitY=0.5;exitDx=0;exitDy=0;entryX=0.25;entryY=1;entryDx=0;entryDy=0;startArrow=classic;startFill=1;" edge="1" parent="1" source="GvflRWC4tKrGhOwPcwrg-31" target="GvflRWC4tKrGhOwPcwrg-40">
          <mxGeometry relative="1" as="geometry" />
        </mxCell>
        <mxCell id="GvflRWC4tKrGhOwPcwrg-30" value="決定" style="edgeStyle=orthogonalEdgeStyle;rounded=0;orthogonalLoop=1;jettySize=auto;html=1;exitX=0;exitY=0.25;exitDx=0;exitDy=0;entryX=0.75;entryY=1;entryDx=0;entryDy=0;" edge="1" parent="1" source="GvflRWC4tKrGhOwPcwrg-31" target="GvflRWC4tKrGhOwPcwrg-27">
          <mxGeometry relative="1" as="geometry" />
        </mxCell>
        <mxCell id="GvflRWC4tKrGhOwPcwrg-31" value="プロダクトオーナーチーム" style="rounded=0;whiteSpace=wrap;html=1;fillColor=#dae8fc;strokeColor=#6c8ebf;" vertex="1" parent="1">
          <mxGeometry x="720" y="540" width="120" height="60" as="geometry" />
        </mxCell>
        <mxCell id="GvflRWC4tKrGhOwPcwrg-32" value="主として対処" style="edgeStyle=orthogonalEdgeStyle;rounded=0;orthogonalLoop=1;jettySize=auto;html=1;exitX=0;exitY=0.75;exitDx=0;exitDy=0;entryX=1;entryY=0.75;entryDx=0;entryDy=0;" edge="1" parent="1" source="GvflRWC4tKrGhOwPcwrg-34" target="GvflRWC4tKrGhOwPcwrg-21">
          <mxGeometry relative="1" as="geometry" />
        </mxCell>
        <mxCell id="GvflRWC4tKrGhOwPcwrg-33" style="edgeStyle=orthogonalEdgeStyle;rounded=0;orthogonalLoop=1;jettySize=auto;html=1;exitX=0.5;exitY=0;exitDx=0;exitDy=0;entryX=0.5;entryY=1;entryDx=0;entryDy=0;startArrow=classic;startFill=1;" edge="1" parent="1" source="GvflRWC4tKrGhOwPcwrg-34" target="GvflRWC4tKrGhOwPcwrg-40">
          <mxGeometry relative="1" as="geometry" />
        </mxCell>
        <mxCell id="GvflRWC4tKrGhOwPcwrg-34" value="開発チーム" style="rounded=0;whiteSpace=wrap;html=1;fillColor=#dae8fc;strokeColor=#6c8ebf;" vertex="1" parent="1">
          <mxGeometry x="880" y="640" width="120" height="60" as="geometry" />
        </mxCell>
        <mxCell id="GvflRWC4tKrGhOwPcwrg-35" value="主として対処" style="edgeStyle=orthogonalEdgeStyle;rounded=0;orthogonalLoop=1;jettySize=auto;html=1;exitX=0;exitY=0.5;exitDx=0;exitDy=0;entryX=0.75;entryY=0;entryDx=0;entryDy=0;" edge="1" parent="1" source="GvflRWC4tKrGhOwPcwrg-37" target="GvflRWC4tKrGhOwPcwrg-25">
          <mxGeometry relative="1" as="geometry" />
        </mxCell>
        <mxCell id="GvflRWC4tKrGhOwPcwrg-36" style="edgeStyle=orthogonalEdgeStyle;rounded=0;orthogonalLoop=1;jettySize=auto;html=1;exitX=0.5;exitY=0;exitDx=0;exitDy=0;entryX=0.75;entryY=1;entryDx=0;entryDy=0;startArrow=classic;startFill=1;" edge="1" parent="1" source="GvflRWC4tKrGhOwPcwrg-37" target="GvflRWC4tKrGhOwPcwrg-40">
          <mxGeometry relative="1" as="geometry" />
        </mxCell>
        <mxCell id="GvflRWC4tKrGhOwPcwrg-37" value="スクラムマスター" style="rounded=0;whiteSpace=wrap;html=1;fillColor=#dae8fc;strokeColor=#6c8ebf;" vertex="1" parent="1">
          <mxGeometry x="1090" y="740" width="120" height="60" as="geometry" />
        </mxCell>
        <mxCell id="GvflRWC4tKrGhOwPcwrg-38" style="edgeStyle=orthogonalEdgeStyle;rounded=0;orthogonalLoop=1;jettySize=auto;html=1;exitX=0;exitY=0.5;exitDx=0;exitDy=0;entryX=1;entryY=0.5;entryDx=0;entryDy=0;startArrow=none;startFill=0;" edge="1" parent="1" source="GvflRWC4tKrGhOwPcwrg-40" target="GvflRWC4tKrGhOwPcwrg-27">
          <mxGeometry relative="1" as="geometry" />
        </mxCell>
        <mxCell id="GvflRWC4tKrGhOwPcwrg-39" value="実施" style="edgeStyle=orthogonalEdgeStyle;rounded=0;orthogonalLoop=1;jettySize=auto;html=1;exitX=1;exitY=0.25;exitDx=0;exitDy=0;entryX=0;entryY=0.25;entryDx=0;entryDy=0;startArrow=none;startFill=0;" edge="1" parent="1" source="GvflRWC4tKrGhOwPcwrg-40" target="GvflRWC4tKrGhOwPcwrg-42">
          <mxGeometry relative="1" as="geometry" />
        </mxCell>
        <mxCell id="GvflRWC4tKrGhOwPcwrg-40" value="スクラムチーム" style="rounded=0;whiteSpace=wrap;html=1;fillColor=#dae8fc;strokeColor=#6c8ebf;" vertex="1" parent="1">
          <mxGeometry x="880" y="435" width="120" height="60" as="geometry" />
        </mxCell>
        <mxCell id="GvflRWC4tKrGhOwPcwrg-41" value="学習" style="edgeStyle=orthogonalEdgeStyle;rounded=0;orthogonalLoop=1;jettySize=auto;html=1;exitX=0;exitY=0.75;exitDx=0;exitDy=0;entryX=1;entryY=0.75;entryDx=0;entryDy=0;startArrow=none;startFill=0;" edge="1" parent="1" source="GvflRWC4tKrGhOwPcwrg-42" target="GvflRWC4tKrGhOwPcwrg-40">
          <mxGeometry relative="1" as="geometry" />
        </mxCell>
        <mxCell id="GvflRWC4tKrGhOwPcwrg-42" value="ふりかえり" style="rounded=0;whiteSpace=wrap;html=1;" vertex="1" parent="1">
          <mxGeometry x="1090" y="435" width="120" height="60" as="geometry" />
        </mxCell>
        <mxCell id="GvflRWC4tKrGhOwPcwrg-43" value="越境" style="shape=flexArrow;endArrow=classic;startArrow=classic;html=1;" edge="1" parent="1">
          <mxGeometry width="50" height="50" relative="1" as="geometry">
            <mxPoint x="900" y="539" as="sourcePoint" />
            <mxPoint x="980" y="539" as="targetPoint" />
          </mxGeometry>
        </mxCell>
      </root>
    </mxGraphModel>
  </diagram>
</mxfile>
